<svg xmlns="http://www.w3.org/2000/svg" xmlns:xlink="http://www.w3.org/1999/xlink" id="uuid-0b6ea9ae-3efa-4309-8f95-2d5afe47df75" width="111.22" height="31.38" viewBox="0 0 111.22 31.38"><defs><linearGradient id="uuid-3fd2d3ab-2511-4e22-a40f-575248e29a06" x1="21.71" x2="89.51" y1="-18.2" y2="49.59" gradientUnits="userSpaceOnUse"><stop offset="0" stop-color="#3c3795"/><stop offset=".51" stop-color="#a53594"/><stop offset="1" stop-color="#ea0a8c"/></linearGradient><linearGradient xlink:href="#uuid-3fd2d3ab-2511-4e22-a40f-575248e29a06" id="uuid-02aa793d-4050-41ea-902c-3a75982ed613" x1="6.91" x2="25.65" y1="15.69" y2="15.69"/><linearGradient id="uuid-c3fd914a-6d58-4020-9c08-4a813b474dee" x1="17.54" x2="16.02" y1="15.67" y2="22.2" gradientUnits="userSpaceOnUse"><stop offset="0" stop-color="#054a76"/><stop offset=".7" stop-color="#026d9c"/></linearGradient><linearGradient id="uuid-44388e75-e06d-4c30-af2b-58ccb78ba8ac" x1="15.18" x2="15.37" y1="19.88" y2="9.37" gradientUnits="userSpaceOnUse"><stop offset="0" stop-color="#026d9c"/><stop offset="1" stop-color="#53c5d1"/></linearGradient><linearGradient xlink:href="#uuid-44388e75-e06d-4c30-af2b-58ccb78ba8ac" id="uuid-3db58498-4ce0-476c-b9e5-beb82650caf3" x1="17.4" x2="17.99" y1="18.34" y2="16.01"/><style>.uuid-e361d4f3-06dd-4286-a644-3e895feb9fd8{fill:#ec008c}</style></defs><g id="uuid-d9b2ce56-5ce4-4c87-8ff0-3f17f5d7fa61"><rect width="109.22" height="29.38" x="1" y="1" rx="4.99" ry="4.99" style="fill:#0d113a;stroke-miterlimit:10;stroke:url(#uuid-3fd2d3ab-2511-4e22-a40f-575248e29a06);stroke-width:2px"/><path d="m28.7 19.84 1.12-1.8q.48.36 1.1.61c.62.25.89.25 1.41.25q.59 0 .96-.22c.37-.22.37-.36.37-.65q0-.35-.29-.56a2.5 2.5 0 0 0-1.07-.38q-1.71-.37-2.46-1.03c-.75-.66-.75-1.06-.75-1.85q0-1.39 1.1-2.21c1.1-.82 1.64-.83 2.71-.83a5.4 5.4 0 0 1 2.96.86l-1.01 1.74q-.56-.35-1.05-.51c-.49-.16-.66-.16-1.01-.16q-.6 0-.96.23c-.36.23-.36.35-.36.59q0 .4.33.58c.33.18.64.25 1.26.38q1.59.33 2.29 1.02c.7.69.7 1.07.7 1.86q0 1.4-1.05 2.25c-1.05.85-1.63.85-2.79.85a6.7 6.7 0 0 1-3.53-.99Zm21.86-8.45-2.67 9.22h-2.82l-1.42-5.55q-.08-.27-.11-.54l-.04-.59h-.05a9 9 0 0 1-.18 1.1l-1.52 5.58h-2.79l-2.63-9.22h2.74l1.35 6.12.08.46.05.55h.05a8 8 0 0 1 .17-1.03l1.64-6.09h2.55l1.49 6.13.06.37.07.65h.07l.06-.51.08-.51 1.27-6.13z" class="uuid-e361d4f3-06dd-4286-a644-3e895feb9fd8"/><path d="M60.28 11.39 56.14 22.3q-.48 1.25-1.41 1.94c-.93.69-1.37.69-2.25.69a7 7 0 0 1-1.58-.2l.47-2a2 2 0 0 0 .87.17q.45 0 .78-.22c.33-.22.4-.39.54-.71l.59-1.37-3.74-9.2h2.97l1.81 5.78.14.53.11.64h.04l.12-.54.17-.62 1.85-5.8zm6.45-2.11q-.25-.12-.46-.17c-.21-.05-.29-.05-.46-.05q-.6 0-.91.35c-.31.35-.31.57-.31 1v.98h2.11v1.99h-2.11v7.23h-2.67v-7.23h-1.56v-1.99h1.56v-1.14q0-1.47 1-2.37c1-.9 1.54-.89 2.6-.89a5 5 0 0 1 1.82.27zm6.73 11.18q-.42.19-.94.28c-.52.09-.69.09-1.05.09q-1.48 0-2.23-.72c-.75-.72-.75-1.2-.75-2.14v-4.59h-1.5v-1.99h1.5V9.32l2.68-.77v2.85h2.1v1.99h-2.1v4.4q0 .57.22.82c.22.25.37.25.68.25q.24 0 .45-.06c.21-.06.28-.09.4-.15l.54 1.82Z" class="uuid-e361d4f3-06dd-4286-a644-3e895feb9fd8"/><path d="M77.34 19.51h-.04v5.25h-2.69V11.4h2.69v1.42h.04q.53-.82 1.28-1.23c.75-.41 1.07-.41 1.71-.41q1.8 0 2.77 1.23.98 1.23.98 3.35 0 2.3-1.14 3.7c-1.14 1.4-1.77 1.4-3.03 1.4q-.84 0-1.48-.33c-.64-.33-.79-.56-1.09-1Zm-.08-3.77v.8q0 .98.53 1.6c.53.62.82.63 1.39.63q1.01 0 1.57-.78a3.7 3.7 0 0 0 .56-2.21q0-1.26-.5-1.89c-.5-.63-.82-.64-1.47-.64s-1.12.23-1.51.69-.58 1.06-.58 1.81Zm15.94 4.87h-2.56v-1.34h-.04a3.1 3.1 0 0 1-2.72 1.57q-1.23 0-2.07-.74c-.84-.74-.84-1.17-.84-2.04s.28-1.56.84-2.09 1.43-.88 2.61-1.04l2.26-.31v-.18q0-.7-.44-1.07c-.44-.37-.7-.36-1.21-.36q-.58 0-1.27.2c-.69.2-.92.34-1.38.63l-.95-1.59q.9-.55 1.83-.82a7 7 0 0 1 2.01-.27q2.01 0 2.97.97c.96.97.97 1.61.97 2.91v5.57Zm-2.53-3.75v-.65l-1.75.23q-.74.1-1.1.43c-.36.33-.36.51-.36.88q0 .51.35.83c.35.32.55.33.95.33a1.8 1.8 0 0 0 1.38-.58q.53-.57.53-1.47m13.16-5.47L99.69 22.3a4.3 4.3 0 0 1-1.41 1.94q-.93.69-2.25.69a7 7 0 0 1-1.58-.2l.47-2a2 2 0 0 0 .87.17q.45 0 .78-.22c.33-.22.4-.39.54-.71l.59-1.37-3.74-9.2h2.97l1.81 5.78.14.53.11.64h.04l.12-.54.17-.62 1.85-5.8z" style="fill:#00aeef"/><path d="m17.09 25.34 7.14-4.12c.5-.29.81-.82.81-1.4v-8.24c0-.58-.31-1.11-.81-1.4l-7.14-4.12a1.6 1.6 0 0 0-1.62 0l-7.14 4.12c-.5.29-.81.82-.81 1.4v8.24c0 .58.31 1.11.81 1.4l7.14 4.12c.5.29 1.12.29 1.62 0Z" style="stroke:url(#uuid-02aa793d-4050-41ea-902c-3a75982ed613);stroke-width:1.23px;fill:#0d113a;stroke-miterlimit:10"/><path d="M19.83 14.47a.2.2 0 0 0-.23.03v-.05h-3.86s-.08.03-.09.07l-1.38 8.13 5.61-7.88a.2.2 0 0 0-.06-.3Z" style="fill:url(#uuid-c3fd914a-6d58-4020-9c08-4a813b474dee)"/><path d="m16.7 16.42.05-.33L18 8.73l-5.28 7.42a.5.5 0 0 0 .41.79h3.9c-.24-.01-.39-.13-.32-.52Z" style="fill:url(#uuid-44388e75-e06d-4c30-af2b-58ccb78ba8ac)"/><path d="m17.03 14.45-.28 1.65-.08.49c-.06.37.57.62 1.27-.15.71-.78 1.6-1.89 1.6-1.89q.08-.1.19-.1z" style="fill:url(#uuid-3db58498-4ce0-476c-b9e5-beb82650caf3)"/></g></svg>